<?xml version="1.0"?>
<svg xmlns="http://www.w3.org/2000/svg" xmlns:xlink="http://www.w3.org/1999/xlink" xmlns:svgjs="http://svgjs.com/svgjs" version="1.1" width="512" height="512" x="0" y="0" viewBox="0 0 512.003 512.003" style="enable-background:new 0 0 512 512" xml:space="preserve" class=""><g transform="matrix(-0.9999999999999999,0,0,0.9999999999999999,512.0010681152344,1.1368683772161603e-13)">
<path xmlns="http://www.w3.org/2000/svg" style="" d="M356.201,504.5c88.035,0,144.287-64.201,144.287-152.303c0-93.186-90.179-157.314-96.192-221.585  c-4.363-46.642,31.103-63.021,69.635-50.514c4.628,1.502,8.962-2.975,7.013-7.433c-11.406-26.089-45.535-83.613-117.729-59.286  c-85.208,28.711-57.114,147.438-33.066,208.56L356.201,504.5z" fill="#d26437" data-original="#d26437"/>
<path xmlns="http://www.w3.org/2000/svg" style="" d="M31.555,304.101L31.555,304.101c-11.068,0-20.04-8.972-20.04-20.04v-8.016  c0-11.068,8.972-20.04,20.04-20.04l0,0c11.068,0,20.04,8.972,20.04,20.04v8.016C51.594,295.129,42.623,304.101,31.555,304.101z" fill="#965a50" data-original="#965a50"/>
<path xmlns="http://www.w3.org/2000/svg" style="" d="M232.622,397.48c-31.212-34.914-47.094-79.545-47.094-79.545l61.79-27.862l20.708,58.116  L232.622,397.48z" fill="#f5dcb4" data-original="#f5dcb4"/>
<path xmlns="http://www.w3.org/2000/svg" style="" d="M214.209,170.835c-0.418-1.835-0.905-3.613-1.449-5.336c-6.7-21.204-31.772-39.927-53.794-43.012  c-24.792-3.473-50.323,3.522-68.762,20.582c-23.671,21.903-33.161,50.808-35.903,65.055c-0.938,4.871,0.882,9.77,4.716,12.918  c4.609,3.783,12.126,8.492,22.836,10.816c0,0,7.274,15.733,24.808,29.004c-26.002-0.093-46.852-5.234-55.526-1.6  c-10.8,5.108-13.802,13.499-14.426,19.613c-0.485,4.747,2.909,8.99,7.6,9.867c13.058,2.442,41.946,6.601,72.206,19.702  c54.775,23.715,81.564,13.798,95.19,7.432c28.055-13.11,55.017,0.435,35.32,28.556c-43.336,61.874,4.76,111.472,32.314,128.005  h-35.571c-14.107,0-26.085,9.11-30.374,21.767c-1.719,5.072,2.357,10.297,7.712,10.297h128.332c16.499,0,31.788-8.657,40.277-22.805  l10.366-17.276C465.544,330.821,364.007,175.845,214.209,170.835z" fill="#eb874b" data-original="#eb874b" class=""/>
<path xmlns="http://www.w3.org/2000/svg" style="" d="M161.82,84.129c-9.251,9.104-15.992,28.7-19.86,37.922c-5.44,12.969,3.561,27.407,17.6,28.243l0,0  c12.534,0.747,23.27-10.242,23.046-22.796c-0.251-14.028-4.536-34.906-9.42-42.267C170.665,81.432,165.07,80.931,161.82,84.129z" fill="#b44632" data-original="#b44632"/>
<circle xmlns="http://www.w3.org/2000/svg" style="" cx="111.719" cy="179.856" r="12.02" fill="#4b3f4e" data-original="#4b3f4e"/>
<path xmlns="http://www.w3.org/2000/svg" style="" d="M116.975,230.454c-13.903,3.024-25.805,3.291-34.913,1.403c0,0,7.274,15.733,24.808,29.004  c27.536,0.099,60.852-5.464,91.605-33.108c3.575-3.213,3.019-9.218-1.381-11.152C171.61,205.403,145.416,224.268,116.975,230.454z" fill="#f5dcb4" data-original="#f5dcb4"/>
<path xmlns="http://www.w3.org/2000/svg" style="" d="M324.137,456.404h-2.099c-14.991,0-29.992-3.561-42.61-11.656  c-36.677-23.53-41.5-69.676-37.998-91.441c-25.235,44.028-5.173,81.029,17.416,103.097h0.188  c7.028,6.865,14.294,12.299,20.516,16.032h44.589c4.427,0,8.016-3.589,8.016-8.016C332.153,459.993,328.563,456.404,324.137,456.404  z" fill="#d26437" data-original="#d26437"/>
<path xmlns="http://www.w3.org/2000/svg" style="" d="M500.488,352.196c0-93.186-90.179-157.314-96.192-221.585c-4.362-46.642,31.104-63.02,69.635-50.514  c2.63,0.854,5.124-0.254,6.464-2.162c-32.345-51.053-95.471-60.405-121.188-22.33c-29.848,44.192-11.69,109.218,37.074,160.32  c29.719,31.143,127.587,168.335,43.958,263.804C478.39,453.208,500.488,407.402,500.488,352.196z" fill="#eb874b" data-original="#eb874b" class=""/>
<path xmlns="http://www.w3.org/2000/svg" d="M451.814,212.65c-19.342-29.138-37.61-56.66-40.049-82.737c-1.707-18.244,3.164-31.939,14.086-39.606  c13.364-9.379,35.002-8.927,56.475,1.18c2.672,1.259,5.831,0.832,8.074-1.09c2.242-1.921,3.148-4.979,2.315-7.813  c-0.617-2.098-15.588-51.622-56.728-73.031C413.845-1.97,388.554-3.074,360.821,6.271c-24.749,8.34-42.563,23.595-52.948,45.343  c-10.188,21.334-13.119,48.827-8.715,81.716c2.35,17.542,6.711,36.317,12.996,56.014c-27.945-14.896-59.186-23.829-91.917-25.729  c-6.749-21.769-21.745-35.357-28.226-40.418c-0.561-11.324-3.953-27.446-16.525-41.763l1.41-8.578  c0.672-4.088-2.097-7.945-6.184-8.617c-4.084-0.676-7.945,2.097-8.617,6.184l-1.312,7.978c-7.571,3.451-22.152,12.587-28.486,33.363  c-70.194,18.932-86.198,90.963-86.198,103.663c0,1.592,0.506,3.142,1.445,4.426c0.56,0.766,9.084,12.075,26.842,17.759  c1.809,2.904,5.871,8.796,12.272,14.791c-2.972-0.245-5.84-0.511-8.583-0.765c-13.274-1.231-22.868-2.12-29.628,0.711  c-0.104,0.044-0.207,0.09-0.31,0.138c-0.446,0.211-0.874,0.432-1.301,0.653c-2.397-1.604-5.019-2.813-7.781-3.592v-3.058  c0-4.143-3.357-7.5-7.5-7.5s-7.5,3.357-7.5,7.5v3.066c-11.551,3.275-20.041,13.908-20.041,26.493v8.017  c0,15.186,12.354,27.539,27.54,27.539c9.768,0,18.652-5.123,23.585-13.322c14.952,2.774,36.284,7.383,58.604,17.046  c30.802,13.335,53.561,16.368,69.966,15.444c4.255,10.646,17.086,39.793,38.647,64.363c0.063,5.243,0.649,10.487,1.764,15.725  c4.702,22.09,18.188,40.698,32.938,54.081h-13.083c-21.815,0-39.563,17.749-39.563,39.563c0,4.143,3.357,7.5,7.5,7.5h144.287  c44.812,0,83.078-15.739,110.66-45.517c26.521-28.633,41.128-69.221,41.128-114.287C507.989,297.28,478.144,252.319,451.814,212.65z   M19.014,284.061v-8.017c0-6.915,5.626-12.54,12.541-12.54c1.013,0,2.004,0.134,2.967,0.367c-5.639,8.417-5.909,18.043-4.704,23.753  c0.645,4.913,5.354,6.644,7.942,7.337c-1.851,1.052-3.978,1.638-6.205,1.638C24.64,296.601,19.014,290.976,19.014,284.061z   M224.867,374.321c-13.018-17.654-21.712-36.095-25.832-45.791c7.382-1.81,12.606-4.25,16.054-5.861  c13.533-6.323,25.815-5.108,29.871-0.278c2.964,3.53,1.554,9.996-3.869,17.738C233.177,351.426,227.769,362.849,224.867,374.321z   M455.856,456.29C431.187,482.924,396.727,497,356.201,497H220.584c3.177-9.889,12.463-17.064,23.393-17.064h56.112  c4.143,0,7.5-3.357,7.5-7.5s-3.357-7.5-7.5-7.5h-18.414c-16.756-10.596-37.4-31.44-42.882-57.203  c-4.136-19.43,0.771-39.279,14.584-59c13.663-19.509,6.698-31.667,3.069-35.988c-9.216-10.977-28.835-12.482-47.708-3.666  c-10.314,4.819-34.468,16.104-89.035-7.52c-27.68-11.983-54.506-16.749-68.918-19.31c-2.252-0.4-4.671-0.83-6.571-1.206  c0.094-4.146,1.696-10.833,10.155-14.917c3.425-1.313,13.027-0.422,22.319,0.44c32.477,3.013,86.827,8.054,133.905-40.053  c2.897-2.961,2.846-7.709-0.114-10.606c-2.963-2.897-7.711-2.845-10.606,0.114c-27.317,27.915-57.116,35.832-83.346,37.147  c-8.563-2.677-15.33-7.608-20.255-12.36c6.768-0.048,14.28-0.959,22.574-3.095c4.011-1.033,6.425-5.122,5.392-9.134  c-1.032-4.011-5.115-6.428-9.134-5.392c-31.919,8.221-48.742-5.192-53.803-10.341c1.836-14.362,16.721-66.673,68.109-84.507  c-0.055,0.889-0.116,1.771-0.144,2.69c-0.123,4.141,3.134,7.597,7.273,7.721c4.18,0.099,7.598-3.134,7.721-7.273  c0.74-24.864,14.241-35.077,21.194-38.701c15.293,18.787,11.249,40.978,11.047,42.026c-0.805,4.051,1.818,7.992,5.869,8.813  c0.502,0.101,1.002,0.149,1.495,0.149c2.225,0,4.298-0.998,5.699-2.639c6.319,6.483,14.272,17.038,17.542,31.375  c0.774,3.394,3.739,5.703,7.062,5.813v0.015c70.65,2.362,134.47,39.802,170.716,100.151c16.239,27.036,25.845,57.454,27.781,87.964  c2.075,32.704-4.354,64.558-19.112,94.673c-1.822,3.719-0.284,8.212,3.436,10.035c1.062,0.52,2.187,0.767,3.294,0.767  c2.772,0,5.438-1.544,6.741-4.202c15.92-32.487,22.854-66.881,20.611-102.222c-2.088-32.894-12.425-65.654-29.892-94.737  c-16.897-28.132-39.382-51.616-65.621-69.395c-13.125-35.941-31.124-100.549-10.715-143.29  c8.571-17.949,23.443-30.597,44.202-37.592c23.685-7.98,45.008-7.196,63.375,2.333c22.416,11.63,36.156,33.959,43.266,48.922  c-20.923-5.854-40.706-3.754-55.018,6.29c-15.362,10.784-22.608,29.706-20.403,53.28c2.791,29.833,22.073,58.882,42.486,89.636  c26.387,39.753,53.673,80.859,53.673,131.251C492.989,393.471,479.801,430.439,455.856,456.29z" fill="#000000" data-original="#000000" style="" class=""/>
<path xmlns="http://www.w3.org/2000/svg" d="M340.168,464.936h-8.015c-4.143,0-7.5,3.357-7.5,7.5s3.357,7.5,7.5,7.5h8.015c4.143,0,7.5-3.357,7.5-7.5  S344.311,464.936,340.168,464.936z" fill="#000000" data-original="#000000" style="" class=""/>
<path xmlns="http://www.w3.org/2000/svg" d="M111.714,160.329c-10.766,0-19.524,8.759-19.524,19.524s8.759,19.524,19.524,19.524s19.523-8.759,19.523-19.524  S122.48,160.329,111.714,160.329z M111.714,184.378c-2.495,0-4.524-2.029-4.524-4.524c0-2.495,2.029-4.524,4.524-4.524  c2.494,0,4.523,2.029,4.523,4.524C116.237,182.349,114.208,184.378,111.714,184.378z" fill="#000000" data-original="#000000" style="" class=""/>
<g xmlns="http://www.w3.org/2000/svg">
</g>
<g xmlns="http://www.w3.org/2000/svg">
</g>
<g xmlns="http://www.w3.org/2000/svg">
</g>
<g xmlns="http://www.w3.org/2000/svg">
</g>
<g xmlns="http://www.w3.org/2000/svg">
</g>
<g xmlns="http://www.w3.org/2000/svg">
</g>
<g xmlns="http://www.w3.org/2000/svg">
</g>
<g xmlns="http://www.w3.org/2000/svg">
</g>
<g xmlns="http://www.w3.org/2000/svg">
</g>
<g xmlns="http://www.w3.org/2000/svg">
</g>
<g xmlns="http://www.w3.org/2000/svg">
</g>
<g xmlns="http://www.w3.org/2000/svg">
</g>
<g xmlns="http://www.w3.org/2000/svg">
</g>
<g xmlns="http://www.w3.org/2000/svg">
</g>
<g xmlns="http://www.w3.org/2000/svg">
</g>
</g></svg>
